<svg xmlns="http://www.w3.org/2000/svg" xmlns:xlink="http://www.w3.org/1999/xlink" width="64" zoomAndPan="magnify" viewBox="0 0 48 48" height="64" preserveAspectRatio="xMidYMid meet" version="1.0"><defs><clipPath id="d8fb17a05b"><path d="M 0.488281 14 L 15.917969 14 L 15.917969 34 L 0.488281 34 Z M 0.488281 14 " clip-rule="nonzero"/></clipPath><clipPath id="dcf6824327"><path d="M 11 10.066406 L 32.886719 10.066406 L 32.886719 40 L 11 40 Z M 11 10.066406 " clip-rule="nonzero"/></clipPath></defs><g clip-path="url(#d8fb17a05b)"><path fill="#ffffff" d="M 2.363281 33.066406 L 7.339844 33.066406 L 10.199219 18.710938 L 14.671875 18.710938 L 15.53125 14.363281 L 1.605469 14.363281 L 0.746094 18.710938 L 5.21875 18.710938 Z M 2.363281 33.066406 " fill-opacity="1" fill-rule="nonzero"/></g><g clip-path="url(#dcf6824327)"><path fill="#ffffff" d="M 16.917969 35.265625 L 18.839844 26.417969 L 20.535156 24.800781 L 23.464844 31.398438 L 29.050781 31.398438 L 24.402344 21.414062 L 32.109375 14.414062 L 25.640625 14.414062 L 20.128906 20.046875 L 20.078125 20 L 22.023438 10.066406 L 17.019531 10.066406 L 11.359375 37.765625 L 11.003906 39.535156 C 14.140625 39.054688 15.882812 38.070312 16.917969 35.265625 Z M 16.917969 35.265625 " fill-opacity="1" fill-rule="nonzero"/></g><path fill="#ffffff" d="M 33.023438 14.414062 L 41.210938 14.414062 C 41.378906 14.414062 41.546875 14.414062 41.71875 14.414062 C 41.902344 14.414062 42.078125 14.421875 42.246094 14.4375 C 42.417969 14.453125 42.59375 14.480469 42.777344 14.511719 C 42.945312 14.53125 43.117188 14.554688 43.285156 14.589844 C 43.4375 14.625 43.585938 14.664062 43.738281 14.714844 C 43.875 14.75 44.015625 14.792969 44.167969 14.84375 C 44.304688 14.910156 44.4375 14.976562 44.574219 15.042969 C 44.707031 15.113281 44.84375 15.1875 44.976562 15.273438 C 45.09375 15.371094 45.203125 15.472656 45.304688 15.574219 C 45.40625 15.675781 45.507812 15.777344 45.609375 15.878906 C 45.695312 15.996094 45.777344 16.121094 45.863281 16.257812 C 45.929688 16.375 45.996094 16.5 46.0625 16.636719 C 46.148438 16.804688 46.214844 16.980469 46.265625 17.167969 C 46.316406 17.351562 46.359375 17.539062 46.394531 17.722656 C 46.425781 17.910156 46.453125 18.101562 46.46875 18.304688 C 46.484375 18.488281 46.492188 18.675781 46.492188 18.859375 C 46.492188 19.148438 46.476562 19.425781 46.445312 19.695312 C 46.394531 19.980469 46.324219 20.25 46.242188 20.503906 C 46.15625 20.773438 46.046875 21.035156 45.914062 21.289062 C 45.777344 21.523438 45.625 21.75 45.457031 21.96875 C 45.289062 22.1875 45.09375 22.382812 44.875 22.550781 C 44.675781 22.71875 44.457031 22.871094 44.21875 23.007812 C 43.984375 23.140625 43.738281 23.257812 43.488281 23.359375 C 43.234375 23.445312 42.972656 23.511719 42.703125 23.5625 L 42.703125 23.585938 C 42.789062 23.621094 42.863281 23.65625 42.929688 23.6875 C 43.015625 23.722656 43.097656 23.753906 43.183594 23.789062 C 43.25 23.839844 43.316406 23.890625 43.386719 23.941406 C 43.453125 23.992188 43.519531 24.042969 43.585938 24.09375 C 44.421875 24.925781 44.445312 26.394531 44.421875 27.503906 C 44.421875 28.3125 44.320312 29.199219 44.421875 30.386719 C 44.496094 31.449219 44.925781 32.15625 45.433594 33.066406 L 40.605469 33.066406 C 40.300781 32.457031 39.871094 31.902344 39.71875 30.992188 C 39.703125 30.773438 39.6875 30.554688 39.671875 30.335938 C 39.652344 30.117188 39.652344 29.898438 39.671875 29.679688 C 39.671875 29.476562 39.679688 29.265625 39.695312 29.046875 C 39.710938 28.828125 39.746094 28.609375 39.796875 28.390625 C 39.8125 28.289062 39.828125 28.179688 39.847656 28.0625 C 39.847656 27.941406 39.855469 27.832031 39.871094 27.730469 C 39.871094 27.613281 39.878906 27.496094 39.898438 27.378906 C 39.898438 27.261719 39.898438 27.152344 39.898438 27.050781 C 39.898438 26.933594 39.890625 26.824219 39.871094 26.722656 C 39.855469 26.621094 39.820312 26.519531 39.769531 26.417969 C 39.738281 26.332031 39.6875 26.25 39.621094 26.164062 C 39.570312 26.0625 39.5 25.980469 39.417969 25.914062 C 39.089844 25.632812 38.582031 25.484375 37.902344 25.484375 L 35.753906 25.484375 L 34.539062 31.421875 L 29.585938 31.421875 Z M 36.484375 21.84375 L 39.039062 21.84375 C 39.871094 21.84375 40.503906 21.667969 40.882812 21.261719 C 40.984375 21.175781 41.070312 21.085938 41.136719 20.984375 C 41.203125 20.882812 41.269531 20.773438 41.339844 20.65625 C 41.386719 20.554688 41.421875 20.4375 41.4375 20.300781 C 41.472656 20.183594 41.480469 20.058594 41.464844 19.921875 C 41.480469 19.890625 41.480469 19.855469 41.464844 19.820312 C 41.464844 19.769531 41.464844 19.730469 41.464844 19.695312 C 41.449219 19.644531 41.4375 19.601562 41.4375 19.570312 C 41.421875 19.535156 41.40625 19.492188 41.386719 19.441406 C 41.386719 19.410156 41.378906 19.367188 41.363281 19.316406 C 41.347656 19.28125 41.320312 19.238281 41.289062 19.1875 C 41.269531 19.15625 41.253906 19.121094 41.238281 19.089844 C 41.203125 19.039062 41.167969 18.996094 41.136719 18.960938 C 41.101562 18.929688 41.070312 18.894531 41.035156 18.859375 C 40.984375 18.828125 40.941406 18.792969 40.910156 18.757812 C 40.859375 18.726562 40.808594 18.699219 40.757812 18.683594 C 40.707031 18.648438 40.65625 18.625 40.605469 18.609375 C 40.554688 18.589844 40.496094 18.566406 40.429688 18.53125 C 40.359375 18.515625 40.292969 18.5 40.226562 18.480469 C 40.160156 18.480469 40.082031 18.472656 40 18.457031 C 39.929688 18.457031 39.863281 18.457031 39.796875 18.457031 L 37.140625 18.457031 Z M 36.484375 21.84375 " fill-opacity="1" fill-rule="evenodd"/></svg>