<svg xmlns="http://www.w3.org/2000/svg" xmlns:xlink="http://www.w3.org/1999/xlink" width="417" zoomAndPan="magnify" viewBox="0 0 312.75 93.749996" height="125" preserveAspectRatio="xMidYMid meet" version="1.0"><path fill="#fefefe" d="M 249.320312 66.988281 L 264.609375 66.988281 L 268.480469 48.582031 L 274.929688 48.582031 C 277.136719 48.582031 278.613281 49.132812 279.71875 50.054688 C 280.640625 50.972656 281.191406 52.078125 281.191406 53.367188 C 281.191406 54.839844 281.007812 56.128906 280.824219 57.601562 C 280.453125 59.992188 280.269531 63.304688 280.640625 65.699219 C 281.191406 68.460938 282.296875 70.117188 283.402344 72.140625 L 298.324219 71.957031 C 296.667969 69.195312 295.378906 66.988281 295.191406 63.859375 C 294.824219 59.992188 295.191406 57.417969 295.191406 54.839844 C 295.191406 51.527344 295.191406 46.925781 292.613281 44.347656 C 291.878906 43.796875 290.957031 43.242188 289.851562 42.875 L 289.851562 42.691406 C 293.351562 42.140625 296.296875 40.484375 298.324219 37.90625 C 300.535156 35.328125 301.457031 32.015625 301.457031 28.335938 C 301.457031 25.390625 301.089844 23.183594 300.167969 21.339844 C 299.429688 19.683594 298.324219 18.210938 296.851562 17.292969 C 295.378906 16.1875 293.71875 15.453125 291.691406 15.082031 C 289.667969 14.714844 287.457031 14.53125 285.246094 14.53125 L 260.003906 14.53125 Z M 272.902344 27.046875 L 281.007812 27.046875 C 281.929688 27.046875 282.851562 27.230469 283.402344 27.414062 C 284.140625 27.785156 284.691406 28.152344 285.0625 28.519531 C 285.429688 29.070312 285.796875 29.441406 285.980469 29.992188 C 285.980469 30.542969 286.164062 31.097656 286.164062 31.464844 C 286.164062 33.121094 285.613281 34.410156 284.324219 35.699219 C 283.21875 36.800781 281.191406 37.355469 278.613281 37.355469 L 270.691406 37.355469 Z M 272.902344 27.046875 " fill-opacity="1" fill-rule="nonzero"/><path fill="#fefefe" d="M 159.597656 78.765625 L 165.496094 51.527344 L 170.652344 46.558594 L 179.863281 66.988281 L 197.183594 66.988281 L 182.8125 36.066406 L 206.578125 14.53125 L 186.496094 14.53125 L 169.546875 31.832031 L 169.363281 31.832031 L 175.441406 1.09375 L 159.96875 1.09375 L 142.464844 86.496094 L 141.359375 92.019531 C 151.125 90.363281 156.46875 87.417969 159.597656 78.765625 Z M 159.597656 78.765625 " fill-opacity="1" fill-rule="nonzero"/><path fill="#fefefe" d="M 40.585938 66.804688 L 56.246094 66.804688 L 60.113281 59.257812 L 76.328125 59.257812 L 77.0625 66.804688 L 92.171875 66.804688 L 84.433594 14.347656 L 69.324219 14.347656 Z M 73.378906 32.382812 L 73.5625 32.382812 L 75.222656 48.03125 L 65.640625 48.03125 Z M 73.378906 32.382812 " fill-opacity="1" fill-rule="nonzero"/><path fill="#fefefe" d="M 16.265625 71.957031 L 31.558594 71.957031 L 40.402344 27.785156 L 54.21875 27.785156 L 56.980469 14.347656 L 13.871094 14.347656 L 11.292969 27.785156 L 25.109375 27.785156 Z M 16.265625 71.957031 " fill-opacity="1" fill-rule="nonzero"/><path fill="#fefefe" d="M 163.835938 87.234375 C 163.835938 88.335938 164.019531 89.257812 164.390625 89.808594 C 164.941406 90.546875 165.496094 91.097656 166.046875 91.46875 C 166.785156 91.835938 167.519531 92.019531 168.441406 92.203125 C 169.179688 92.203125 170.101562 92.386719 170.835938 92.386719 C 171.941406 92.386719 173.046875 92.203125 173.96875 92.019531 C 174.890625 91.652344 175.628906 91.28125 176.363281 90.914062 C 176.917969 90.546875 177.46875 89.808594 177.839844 89.257812 C 178.207031 88.523438 178.390625 87.785156 178.390625 87.050781 C 178.390625 86.3125 178.207031 85.578125 178.023438 85.023438 C 177.652344 84.65625 177.285156 84.105469 176.734375 83.738281 C 176.363281 83.550781 175.628906 83.183594 174.890625 83 C 173.96875 82.816406 173.046875 82.632812 172.125 82.449219 C 171.757812 82.449219 171.390625 82.449219 171.207031 82.265625 C 170.835938 82.078125 170.835938 81.894531 170.835938 81.527344 C 170.835938 80.976562 171.019531 80.792969 171.390625 80.609375 C 171.574219 80.421875 171.941406 80.238281 172.3125 80.238281 C 172.679688 80.238281 172.863281 80.238281 173.046875 80.421875 C 173.230469 80.421875 173.601562 80.421875 173.785156 80.609375 C 173.96875 80.792969 174.152344 81.160156 174.152344 81.710938 L 179.128906 81.710938 C 179.128906 80.792969 179.128906 80.054688 178.757812 79.503906 C 178.207031 78.765625 177.839844 78.398438 177.101562 78.03125 C 176.363281 77.664062 175.628906 77.480469 174.890625 77.480469 C 174.152344 77.292969 173.230469 77.292969 172.496094 77.292969 C 171.574219 77.292969 170.652344 77.292969 169.914062 77.480469 C 168.996094 77.664062 168.257812 77.847656 167.519531 78.214844 C 166.785156 78.765625 166.230469 79.320312 165.863281 79.871094 C 165.308594 80.609375 165.125 81.527344 165.125 82.449219 C 165.125 83.183594 165.308594 83.921875 165.679688 84.289062 C 166.046875 84.839844 166.414062 85.207031 166.785156 85.394531 C 167.335938 85.761719 167.707031 85.945312 168.074219 85.945312 C 168.625 86.128906 168.996094 86.128906 169.179688 86.128906 C 169.730469 86.3125 170.285156 86.3125 170.652344 86.496094 C 171.019531 86.496094 171.390625 86.679688 171.757812 86.679688 C 172.125 86.867188 172.3125 86.867188 172.496094 87.050781 C 172.679688 87.234375 172.679688 87.417969 172.679688 87.601562 C 172.679688 87.785156 172.679688 87.96875 172.679688 87.96875 C 172.679688 88.152344 172.496094 88.335938 172.496094 88.523438 C 172.3125 88.523438 172.125 88.707031 171.941406 88.890625 C 171.757812 88.890625 171.390625 88.890625 171.019531 88.890625 C 170.285156 88.890625 169.914062 88.890625 169.546875 88.523438 C 169.179688 88.335938 168.996094 87.785156 168.996094 87.234375 Z M 185.945312 85.945312 C 185.945312 85.578125 186.128906 85.207031 186.128906 84.65625 C 186.3125 84.105469 186.496094 83.550781 186.679688 83 C 186.867188 82.632812 187.234375 82.078125 187.601562 81.710938 C 187.96875 81.34375 188.523438 81.160156 189.074219 81.160156 C 189.8125 81.160156 190.367188 81.527344 190.550781 81.894531 C 190.917969 82.449219 191.101562 83 191.101562 83.921875 C 191.101562 84.289062 190.917969 84.65625 190.917969 85.207031 C 190.734375 85.578125 190.550781 86.128906 190.367188 86.679688 C 190.179688 87.050781 189.8125 87.417969 189.445312 87.785156 C 189.074219 88.152344 188.523438 88.335938 187.96875 88.335938 C 187.601562 88.335938 187.234375 88.335938 187.050781 88.152344 C 186.867188 87.96875 186.496094 87.785156 186.496094 87.601562 C 186.3125 87.417969 186.128906 87.234375 186.128906 86.867188 C 186.128906 86.679688 185.945312 86.3125 185.945312 85.945312 Z M 180.417969 85.578125 C 180.417969 86.867188 180.601562 87.785156 180.96875 88.707031 C 181.339844 89.625 181.890625 90.179688 182.628906 90.730469 C 183.179688 91.28125 183.917969 91.652344 184.839844 92.019531 C 185.761719 92.203125 186.679688 92.386719 187.785156 92.386719 C 189.445312 92.386719 190.917969 92.019531 192.023438 91.46875 C 193.128906 90.914062 194.050781 90.179688 194.789062 89.257812 C 195.523438 88.523438 195.894531 87.417969 196.261719 86.496094 C 196.445312 85.394531 196.628906 84.472656 196.628906 83.550781 C 196.628906 82.449219 196.445312 81.527344 196.078125 80.609375 C 195.894531 79.871094 195.339844 79.320312 194.789062 78.765625 C 194.050781 78.214844 193.3125 77.847656 192.390625 77.664062 C 191.472656 77.292969 190.550781 77.292969 189.445312 77.292969 C 187.96875 77.292969 186.679688 77.480469 185.574219 77.847656 C 184.46875 78.398438 183.363281 78.949219 182.628906 79.6875 C 181.890625 80.421875 181.339844 81.34375 180.96875 82.265625 C 180.601562 83.367188 180.417969 84.472656 180.417969 85.578125 Z M 197.734375 92.019531 L 203.261719 92.019531 L 207.316406 72.140625 L 201.605469 72.140625 Z M 224.816406 77.664062 L 219.105469 77.664062 L 217.816406 83.367188 C 217.816406 83.921875 217.632812 84.472656 217.449219 84.839844 C 217.449219 85.394531 217.261719 85.945312 217.078125 86.3125 C 216.894531 86.867188 216.527344 87.234375 216.15625 87.601562 C 215.789062 87.785156 215.421875 87.96875 214.683594 87.96875 C 214.316406 87.96875 213.949219 87.785156 213.578125 87.601562 C 213.210938 87.417969 213.210938 87.050781 213.210938 86.679688 C 213.210938 86.496094 213.210938 86.3125 213.210938 85.945312 C 213.210938 85.761719 213.210938 85.394531 213.394531 85.023438 L 215.050781 77.664062 L 209.339844 77.664062 C 208.972656 79.503906 208.605469 81.160156 208.234375 82.449219 C 208.050781 83.738281 207.867188 84.839844 207.683594 85.578125 C 207.5 86.3125 207.316406 86.867188 207.316406 87.417969 C 207.128906 87.785156 207.128906 88.152344 207.128906 88.523438 C 207.128906 89.257812 207.316406 89.808594 207.5 90.363281 C 207.867188 90.730469 208.050781 91.097656 208.605469 91.46875 C 208.972656 91.835938 209.527344 92.019531 210.078125 92.203125 C 210.632812 92.203125 211.183594 92.386719 211.921875 92.386719 C 212.84375 92.386719 213.761719 92.203125 214.5 91.835938 C 215.238281 91.46875 215.972656 90.914062 216.710938 90.179688 L 216.15625 92.019531 L 221.683594 92.019531 Z M 235.503906 73.246094 L 229.792969 73.246094 L 228.871094 77.664062 L 226.289062 77.664062 L 225.554688 80.976562 L 228.132812 80.976562 L 226.84375 86.867188 C 226.660156 87.234375 226.660156 87.601562 226.476562 87.785156 C 226.476562 88.152344 226.476562 88.523438 226.476562 88.890625 C 226.476562 89.441406 226.660156 89.996094 226.84375 90.363281 C 227.210938 90.914062 227.582031 91.28125 227.949219 91.652344 C 228.5 91.835938 229.054688 92.019531 229.792969 92.019531 C 230.34375 92.203125 230.898438 92.203125 231.632812 92.203125 C 232 92.019531 232.554688 92.019531 233.105469 92.019531 C 233.660156 92.019531 234.027344 91.835938 234.582031 91.835938 L 235.503906 87.785156 C 235.132812 87.785156 234.949219 87.785156 234.765625 87.785156 C 234.398438 87.96875 234.027344 87.96875 233.660156 87.96875 C 233.105469 87.96875 232.921875 87.785156 232.738281 87.601562 C 232.554688 87.417969 232.371094 87.234375 232.371094 87.050781 C 232.371094 86.867188 232.554688 86.496094 232.554688 86.3125 C 232.554688 86.128906 232.738281 85.761719 232.738281 85.578125 L 233.660156 80.976562 L 236.609375 80.976562 L 237.527344 77.664062 L 234.398438 77.664062 Z M 236.609375 92.019531 L 242.320312 92.019531 L 245.265625 77.664062 L 239.738281 77.664062 Z M 246.371094 72.140625 L 240.84375 72.140625 L 239.925781 76.007812 L 245.636719 76.007812 Z M 251.898438 85.945312 C 251.898438 85.578125 251.898438 85.207031 252.082031 84.65625 C 252.082031 84.105469 252.265625 83.550781 252.453125 83 C 252.820312 82.632812 253.003906 82.078125 253.558594 81.710938 C 253.925781 81.34375 254.292969 81.160156 254.847656 81.160156 C 255.582031 81.160156 256.136719 81.527344 256.503906 81.894531 C 256.6875 82.449219 256.875 83 256.875 83.921875 C 256.875 84.289062 256.875 84.65625 256.6875 85.207031 C 256.6875 85.578125 256.503906 86.128906 256.136719 86.679688 C 255.953125 87.050781 255.582031 87.417969 255.214844 87.785156 C 254.847656 88.152344 254.476562 88.335938 253.925781 88.335938 C 253.371094 88.335938 253.1875 88.335938 252.820312 88.152344 C 252.636719 87.96875 252.453125 87.785156 252.265625 87.601562 C 252.082031 87.417969 252.082031 87.234375 251.898438 86.867188 C 251.898438 86.679688 251.898438 86.3125 251.898438 85.945312 Z M 246.1875 85.578125 C 246.1875 86.867188 246.371094 87.785156 246.742188 88.707031 C 247.109375 89.625 247.660156 90.179688 248.398438 90.730469 C 249.136719 91.28125 249.871094 91.652344 250.792969 92.019531 C 251.53125 92.203125 252.636719 92.386719 253.558594 92.386719 C 255.214844 92.386719 256.6875 92.019531 257.792969 91.46875 C 259.082031 90.914062 259.820312 90.179688 260.558594 89.257812 C 261.292969 88.523438 261.664062 87.417969 262.03125 86.496094 C 262.398438 85.394531 262.398438 84.472656 262.398438 83.550781 C 262.398438 82.449219 262.398438 81.527344 262.03125 80.609375 C 261.664062 79.871094 261.109375 79.320312 260.558594 78.765625 C 259.820312 78.214844 259.082031 77.847656 258.347656 77.664062 C 257.425781 77.292969 256.320312 77.292969 255.398438 77.292969 C 253.742188 77.292969 252.453125 77.480469 251.347656 77.847656 C 250.242188 78.398438 249.320312 78.949219 248.582031 79.6875 C 247.660156 80.421875 247.109375 81.34375 246.742188 82.265625 C 246.371094 83.367188 246.1875 84.472656 246.1875 85.578125 Z M 263.503906 92.019531 L 269.03125 92.019531 L 270.691406 84.289062 C 270.691406 83.921875 270.875 83.550781 270.875 83.367188 C 271.058594 83 271.242188 82.632812 271.425781 82.449219 C 271.613281 82.265625 271.980469 81.894531 272.164062 81.894531 C 272.53125 81.710938 272.902344 81.527344 273.269531 81.527344 C 273.824219 81.527344 274.191406 81.710938 274.558594 81.894531 C 274.742188 82.265625 274.929688 82.449219 274.929688 83 C 274.929688 83.367188 274.929688 83.738281 274.742188 84.105469 C 274.742188 84.472656 274.558594 85.023438 274.558594 85.394531 L 273.085938 92.019531 L 278.613281 92.019531 L 280.453125 83.921875 C 280.640625 83.367188 280.640625 82.816406 280.824219 82.265625 C 280.824219 81.894531 280.824219 81.34375 280.824219 81.160156 C 280.824219 80.421875 280.824219 79.871094 280.453125 79.320312 C 280.269531 78.765625 279.902344 78.398438 279.347656 78.03125 C 278.980469 77.847656 278.429688 77.480469 277.875 77.480469 C 277.324219 77.292969 276.769531 77.292969 276.035156 77.292969 C 275.113281 77.292969 274.375 77.480469 273.453125 77.847656 C 272.71875 78.214844 272.164062 78.765625 271.613281 79.503906 L 271.980469 77.664062 L 266.453125 77.664062 Z M 281.746094 87.234375 C 281.746094 88.335938 281.929688 89.257812 282.480469 89.808594 C 282.851562 90.546875 283.402344 91.097656 284.140625 91.46875 C 284.691406 91.835938 285.613281 92.019531 286.351562 92.203125 C 287.269531 92.203125 288.007812 92.386719 288.929688 92.386719 C 290.035156 92.386719 290.957031 92.203125 291.878906 92.019531 C 292.796875 91.652344 293.71875 91.28125 294.273438 90.914062 C 295.007812 90.546875 295.378906 89.808594 295.746094 89.257812 C 296.113281 88.523438 296.296875 87.785156 296.296875 87.050781 C 296.296875 86.3125 296.113281 85.578125 295.929688 85.023438 C 295.746094 84.65625 295.378906 84.105469 294.824219 83.738281 C 294.273438 83.550781 293.535156 83.183594 292.796875 83 C 292.0625 82.816406 291.140625 82.632812 290.035156 82.449219 C 289.667969 82.449219 289.296875 82.449219 289.113281 82.265625 C 288.929688 82.078125 288.746094 81.894531 288.746094 81.527344 C 288.746094 80.976562 288.929688 80.792969 289.296875 80.609375 C 289.667969 80.421875 290.035156 80.238281 290.402344 80.238281 C 290.585938 80.238281 290.773438 80.238281 291.140625 80.421875 C 291.324219 80.421875 291.507812 80.421875 291.691406 80.609375 C 292.0625 80.792969 292.0625 81.160156 292.0625 81.710938 L 297.035156 81.710938 C 297.21875 80.792969 297.035156 80.054688 296.667969 79.503906 C 296.296875 78.765625 295.746094 78.398438 295.007812 78.03125 C 294.457031 77.664062 293.71875 77.480469 292.796875 77.480469 C 292.0625 77.292969 291.324219 77.292969 290.585938 77.292969 C 289.667969 77.292969 288.746094 77.292969 287.824219 77.480469 C 286.902344 77.664062 286.164062 77.847656 285.429688 78.214844 C 284.875 78.765625 284.140625 79.320312 283.769531 79.871094 C 283.402344 80.609375 283.21875 81.527344 283.21875 82.449219 C 283.21875 83.183594 283.402344 83.921875 283.585938 84.289062 C 283.957031 84.839844 284.324219 85.207031 284.875 85.394531 C 285.246094 85.761719 285.613281 85.945312 286.164062 85.945312 C 286.535156 86.128906 286.902344 86.128906 287.085938 86.128906 C 287.640625 86.3125 288.191406 86.3125 288.5625 86.496094 C 289.113281 86.496094 289.480469 86.679688 289.667969 86.679688 C 290.035156 86.867188 290.21875 86.867188 290.402344 87.050781 C 290.585938 87.234375 290.773438 87.417969 290.773438 87.601562 C 290.773438 87.785156 290.773438 87.96875 290.585938 87.96875 C 290.585938 88.152344 290.585938 88.335938 290.402344 88.523438 C 290.21875 88.523438 290.21875 88.707031 289.851562 88.890625 C 289.667969 88.890625 289.296875 88.890625 288.929688 88.890625 C 288.375 88.890625 287.824219 88.890625 287.457031 88.523438 C 287.085938 88.335938 287.085938 87.785156 287.085938 87.234375 Z M 281.746094 87.234375 " fill-opacity="1" fill-rule="nonzero"/><path fill="#fefefe" d="M 14.425781 78.582031 L 137.308594 78.582031 L 134.542969 92.019531 L 11.84375 92.019531 Z M 14.425781 78.582031 " fill-opacity="1" fill-rule="evenodd"/><path fill="#fefefe" d="M 202.710938 66.988281 L 243.609375 66.988281 L 246.1875 53.550781 L 221.132812 53.550781 L 222.421875 46.925781 L 243.054688 46.925781 L 245.636719 34.410156 L 224.816406 34.410156 L 226.289062 27.96875 L 251.53125 27.96875 L 254.292969 14.53125 L 213.394531 14.53125 Z M 202.710938 66.988281 " fill-opacity="1" fill-rule="nonzero"/><path fill="#fefefe" d="M 128.648438 46.558594 C 128.28125 48.765625 127.359375 50.605469 125.882812 52.078125 C 124.59375 53.550781 123.675781 54.289062 121.277344 54.289062 C 119.4375 54.289062 117.960938 53.917969 117.042969 53.183594 C 115.9375 52.445312 115.199219 51.527344 114.648438 50.605469 C 114.09375 49.503906 113.726562 48.398438 113.542969 47.109375 C 113.171875 45.820312 113.171875 44.714844 113.171875 43.796875 C 113.171875 41.957031 113.355469 40.113281 113.726562 38.089844 C 114.277344 36.066406 114.832031 34.226562 115.753906 32.570312 C 116.671875 30.914062 117.960938 29.625 119.253906 28.519531 C 120.726562 27.414062 122.570312 26.863281 124.78125 26.863281 C 127.175781 26.863281 128.832031 27.414062 129.9375 28.703125 C 131.226562 29.992188 131.597656 31.832031 131.597656 34.226562 L 146.148438 34.226562 C 145.964844 30.359375 145.414062 27.230469 144.125 24.839844 C 143.019531 22.261719 141.542969 20.238281 139.519531 18.582031 C 137.492188 17.109375 135.28125 16.003906 132.886719 15.265625 C 130.304688 14.714844 127.542969 14.347656 124.78125 14.347656 C 120.542969 14.347656 116.855469 15.082031 113.542969 16.738281 C 110.039062 18.210938 107.277344 20.421875 105.066406 23.183594 C 102.671875 25.757812 100.828125 28.886719 99.722656 32.570312 C 98.433594 36.066406 97.882812 39.929688 97.882812 43.980469 C 97.882812 47.292969 98.25 50.421875 99.171875 53.183594 C 100.09375 55.945312 101.382812 58.335938 103.039062 60.359375 C 104.882812 62.386719 107.09375 64.042969 109.855469 65.148438 C 112.4375 66.25 115.566406 66.804688 119.253906 66.804688 C 122.753906 66.804688 125.699219 66.433594 128.28125 65.699219 C 131.964844 64.59375 136.015625 61.648438 138.414062 58.519531 C 139.703125 57.046875 140.625 55.574219 141.359375 54.101562 C 142.097656 52.632812 142.648438 51.160156 143.019531 49.871094 C 143.386719 48.582031 143.570312 47.476562 143.753906 46.558594 Z M 128.648438 46.558594 " fill-opacity="1" fill-rule="nonzero"/></svg>